<svg width="70" height="70" viewBox="0 0 70 70" fill="none" xmlns="http://www.w3.org/2000/svg">
<rect width="70" height="70" rx="35" fill="#708B96"/>
<path fill-rule="evenodd" clip-rule="evenodd" d="M31.64 50.47V50.4V48.9233V44.6368C27.2531 43.256 24.08 39.244 24.08 34.51C24.08 28.6337 28.969 23.87 35 23.87C41.0309 23.87 45.92 28.6337 45.92 34.51C45.92 39.244 42.7469 43.256 38.36 44.6368V48.9233V50.4V50.47H50.4V46.13H44.4544C48.0317 43.4197 50.33 39.2066 50.33 34.475C50.33 26.2984 43.4665 19.67 35 19.67C26.5335 19.67 19.67 26.2984 19.67 34.475C19.67 39.2066 21.9683 43.4197 25.5456 46.13H19.6V50.47H31.64Z" fill="white"/>
</svg>
