<svg width="70" height="70" viewBox="0 0 70 70" fill="none" xmlns="http://www.w3.org/2000/svg">
<rect width="70" height="70" rx="35" fill="#708B96"/>
<path fill-rule="evenodd" clip-rule="evenodd" d="M31.6401 50.47V50.4V48.9233V44.6368C27.2532 43.256 24.0801 39.244 24.0801 34.51C24.0801 28.6337 28.9691 23.87 35.0001 23.87C41.031 23.87 45.9201 28.6337 45.9201 34.51C45.9201 39.244 42.747 43.256 38.3601 44.6368V48.9233V50.4V50.47H50.4001V46.13H44.4545C48.0318 43.4197 50.3301 39.2066 50.3301 34.475C50.3301 26.2984 43.4666 19.67 35.0001 19.67C26.5336 19.67 19.6701 26.2984 19.6701 34.475C19.6701 39.2066 21.9684 43.4197 25.5457 46.13H19.6001V50.47H31.6401Z" fill="white"/>
<circle cx="35" cy="35" r="35" fill="#333333"/>
<path fill-rule="evenodd" clip-rule="evenodd" d="M49.0733 26.5179L54.7703 20.5497L49.6833 15.694L44.1554 21.4851C43.2636 20.8945 42.3149 20.3894 41.3219 19.978C39.2932 19.1377 37.1189 18.7052 34.9232 18.7052C32.7274 18.7052 30.5531 19.1377 28.5244 19.978C27.6168 20.354 26.7462 20.8083 25.9222 21.3347L20.075 15.7532L15.2193 20.8402L20.9227 26.2844C20.3577 27.1497 19.8727 28.0677 19.4753 29.0272C18.635 31.0558 18.2025 33.2301 18.2025 35.4259C18.2025 37.6217 18.635 39.796 19.4753 41.8246C19.8357 42.6947 20.2681 43.5307 20.767 44.3243L14.7546 50.6229L19.8416 55.4786L25.6816 49.3605C26.5762 49.9538 27.5279 50.461 28.5244 50.8737C30.5531 51.714 32.7274 52.1465 34.9232 52.1465C37.1189 52.1465 39.2932 51.714 41.3219 50.8737C42.2385 50.4941 43.1172 50.0345 43.9484 49.5016L50.148 55.4193L55.0037 50.3324L48.9392 44.5435C49.4976 43.6851 49.9773 42.7752 50.371 41.8246C51.2113 39.796 51.6438 37.6217 51.6438 35.4259C51.6438 33.2301 51.2113 31.0558 50.371 29.0272C50.0092 28.1536 49.5747 27.3143 49.0733 26.5179ZM34.9232 25.2677C33.5892 25.2677 32.2682 25.5305 31.0358 26.041C29.8034 26.5515 28.6835 27.2997 27.7403 28.243C26.797 29.1863 26.0488 30.3061 25.5383 31.5385C25.0278 32.771 24.765 34.0919 24.765 35.4259C24.765 36.7599 25.0278 38.0808 25.5383 39.3132C26.0488 40.5457 26.797 41.6655 27.7403 42.6088C28.6835 43.552 29.8034 44.3003 31.0358 44.8108C32.2682 45.3213 33.5892 45.584 34.9232 45.584C36.2571 45.584 37.5781 45.3213 38.8105 44.8108C40.043 44.3003 41.1628 43.552 42.1061 42.6088C43.0493 41.6655 43.7976 40.5457 44.3081 39.3132C44.8186 38.0808 45.0813 36.7599 45.0813 35.4259C45.0813 34.0919 44.8186 32.771 44.3081 31.5385C43.7976 30.3061 43.0493 29.1863 42.1061 28.243C41.1628 27.2997 40.043 26.5515 38.8105 26.041C37.5781 25.5305 36.2571 25.2677 34.9232 25.2677Z" fill="white"/>
</svg>
