<svg width="480" height="120" viewBox="0 0 480 120" fill="none" xmlns="http://www.w3.org/2000/svg">
<path d="M163.203 42.8984L151.906 74H147.289L160.297 39.875H163.273L163.203 42.8984ZM172.672 74L161.352 42.8984L161.281 39.875H164.258L177.312 74H172.672ZM172.086 61.3672V65.0703H152.914V61.3672H172.086ZM204.781 70.3203V74H181.672V70.3203H204.781ZM204.031 43.1562L182.75 74H179.961V70.625L201.219 39.875H204.031V43.1562ZM202.109 39.875V43.5781H180.266V39.875H202.109ZM232.344 70.3203V74H214.273V70.3203H232.344ZM215.188 39.875V74H210.664V39.875H215.188ZM229.953 54.5469V58.2266H214.273V54.5469H229.953ZM232.109 39.875V43.5781H214.273V39.875H232.109ZM237.945 39.875H249.242C251.805 39.875 253.969 40.2656 255.734 41.0469C257.516 41.8281 258.867 42.9844 259.789 44.5156C260.727 46.0312 261.195 47.8984 261.195 50.1172C261.195 51.6797 260.875 53.1094 260.234 54.4062C259.609 55.6875 258.703 56.7812 257.516 57.6875C256.344 58.5781 254.938 59.2422 253.297 59.6797L252.031 60.1719H241.414L241.367 56.4922H249.383C251.008 56.4922 252.359 56.2109 253.438 55.6484C254.516 55.0703 255.328 54.2969 255.875 53.3281C256.422 52.3594 256.695 51.2891 256.695 50.1172C256.695 48.8047 256.438 47.6562 255.922 46.6719C255.406 45.6875 254.594 44.9297 253.484 44.3984C252.391 43.8516 250.977 43.5781 249.242 43.5781H242.469V74H237.945V39.875ZM257.891 74L249.594 58.5312L254.305 58.5078L262.719 73.7188V74H257.891ZM293.797 55.8594V58.0156C293.797 60.5781 293.477 62.875 292.836 64.9062C292.195 66.9375 291.273 68.6641 290.07 70.0859C288.867 71.5078 287.422 72.5938 285.734 73.3438C284.062 74.0938 282.188 74.4688 280.109 74.4688C278.094 74.4688 276.242 74.0938 274.555 73.3438C272.883 72.5938 271.43 71.5078 270.195 70.0859C268.977 68.6641 268.031 66.9375 267.359 64.9062C266.688 62.875 266.352 60.5781 266.352 58.0156V55.8594C266.352 53.2969 266.68 51.0078 267.336 48.9922C268.008 46.9609 268.953 45.2344 270.172 43.8125C271.391 42.375 272.836 41.2812 274.508 40.5312C276.195 39.7812 278.047 39.4062 280.062 39.4062C282.141 39.4062 284.016 39.7812 285.688 40.5312C287.375 41.2812 288.82 42.375 290.023 43.8125C291.242 45.2344 292.172 46.9609 292.812 48.9922C293.469 51.0078 293.797 53.2969 293.797 55.8594ZM289.32 58.0156V55.8125C289.32 53.7812 289.109 51.9844 288.688 50.4219C288.281 48.8594 287.68 47.5469 286.883 46.4844C286.086 45.4219 285.109 44.6172 283.953 44.0703C282.812 43.5234 281.516 43.25 280.062 43.25C278.656 43.25 277.383 43.5234 276.242 44.0703C275.117 44.6172 274.148 45.4219 273.336 46.4844C272.539 47.5469 271.922 48.8594 271.484 50.4219C271.047 51.9844 270.828 53.7812 270.828 55.8125V58.0156C270.828 60.0625 271.047 61.875 271.484 63.4531C271.922 65.0156 272.547 66.3359 273.359 67.4141C274.188 68.4766 275.164 69.2812 276.289 69.8281C277.43 70.375 278.703 70.6484 280.109 70.6484C281.578 70.6484 282.883 70.375 284.023 69.8281C285.164 69.2812 286.125 68.4766 286.906 67.4141C287.703 66.3359 288.305 65.0156 288.711 63.4531C289.117 61.875 289.32 60.0625 289.32 58.0156ZM321.711 74H314.586L314.633 70.3203H321.711C324.148 70.3203 326.18 69.8125 327.805 68.7969C329.43 67.7656 330.648 66.3281 331.461 64.4844C332.289 62.625 332.703 60.4531 332.703 57.9688V55.8828C332.703 53.9297 332.469 52.1953 332 50.6797C331.531 49.1484 330.844 47.8594 329.938 46.8125C329.031 45.75 327.922 44.9453 326.609 44.3984C325.312 43.8516 323.82 43.5781 322.133 43.5781H314.445V39.875H322.133C324.367 39.875 326.406 40.25 328.25 41C330.094 41.7344 331.68 42.8047 333.008 44.2109C334.352 45.6016 335.383 47.2891 336.102 49.2734C336.82 51.2422 337.18 53.4609 337.18 55.9297V57.9688C337.18 60.4375 336.82 62.6641 336.102 64.6484C335.383 66.6172 334.344 68.2969 332.984 69.6875C331.641 71.0781 330.016 72.1484 328.109 72.8984C326.219 73.6328 324.086 74 321.711 74ZM317 39.875V74H312.477V39.875H317ZM365.656 70.3203V74H347.586V70.3203H365.656ZM348.5 39.875V74H343.977V39.875H348.5ZM363.266 54.5469V58.2266H347.586V54.5469H363.266ZM365.422 39.875V43.5781H347.586V39.875H365.422ZM383.422 58.0391H374.773L374.727 54.4062H382.578C383.875 54.4062 385.008 54.1875 385.977 53.75C386.945 53.3125 387.695 52.6875 388.227 51.875C388.773 51.0469 389.047 50.0625 389.047 48.9219C389.047 47.6719 388.805 46.6562 388.32 45.875C387.852 45.0781 387.125 44.5 386.141 44.1406C385.172 43.7656 383.938 43.5781 382.438 43.5781H375.781V74H371.258V39.875H382.438C384.188 39.875 385.75 40.0547 387.125 40.4141C388.5 40.7578 389.664 41.3047 390.617 42.0547C391.586 42.7891 392.32 43.7266 392.82 44.8672C393.32 46.0078 393.57 47.375 393.57 48.9688C393.57 50.375 393.211 51.6484 392.492 52.7891C391.773 53.9141 390.773 54.8359 389.492 55.5547C388.227 56.2734 386.742 56.7344 385.039 56.9375L383.422 58.0391ZM383.211 74H372.992L375.547 70.3203H383.211C384.648 70.3203 385.867 70.0703 386.867 69.5703C387.883 69.0703 388.656 68.3672 389.188 67.4609C389.719 66.5391 389.984 65.4531 389.984 64.2031C389.984 62.9375 389.758 61.8438 389.305 60.9219C388.852 60 388.141 59.2891 387.172 58.7891C386.203 58.2891 384.953 58.0391 383.422 58.0391H376.977L377.023 54.4062H385.836L386.797 55.7188C388.438 55.8594 389.828 56.3281 390.969 57.125C392.109 57.9062 392.977 58.9062 393.57 60.125C394.18 61.3438 394.484 62.6875 394.484 64.1562C394.484 66.2812 394.016 68.0781 393.078 69.5469C392.156 71 390.852 72.1094 389.164 72.875C387.477 73.625 385.492 74 383.211 74ZM413.797 42.8984L402.5 74H397.883L410.891 39.875H413.867L413.797 42.8984ZM423.266 74L411.945 42.8984L411.875 39.875H414.852L427.906 74H423.266ZM422.68 61.3672V65.0703H403.508V61.3672H422.68ZM442.039 39.875V74H437.586V39.875H442.039ZM453.008 39.875V43.5781H426.641V39.875H453.008ZM479.75 70.3203V74H461.68V70.3203H479.75ZM462.594 39.875V74H458.07V39.875H462.594ZM477.359 54.5469V58.2266H461.68V54.5469H477.359ZM479.516 39.875V43.5781H461.68V39.875H479.516Z" fill="url(#paint0_linear_0_1)"/>
<circle cx="60" cy="60" r="60" fill="#5CC9AC"/>
<circle cx="60" cy="60" r="54" fill="#172029"/>
<circle cx="60" cy="60" r="60" fill="#5CC9AC"/>
<circle cx="60" cy="60" r="54" fill="#172029"/>
<circle cx="60" cy="60" r="45" fill="#5CC9AC"/>
<circle cx="60" cy="60" r="39" fill="#172029"/>
<path d="M53.995 32.3396L61.0069 32.3397L39.27 79.7523L30.8557 79.7523L53.995 32.3396Z" fill="white"/>
<path d="M55.6713 32.8889H66.0663L65.1979 38H60.8688H56.4436L55.6713 32.8889Z" fill="white"/>
<path d="M60.3058 32.3385L67.0681 32.3384L88.3534 79.7523L79.9392 79.7523L60.3058 32.3385Z" fill="white"/>
<path d="M35.055 50.2667H48.915V56.9111H35.055V50.2667Z" fill="white"/>
<path d="M71.1901 50.2667H83.5651V56.9111H71.1901V50.2667Z" fill="white"/>
<rect x="53.4" y="60" width="14.4" height="3" fill="white"/>
<rect x="53.4" y="65.4" width="14.4" height="3" fill="white"/>
<rect x="53.4" y="70.8" width="14.4" height="3" fill="white"/>
<rect x="140" y="87" width="107" height="25" rx="12.5" fill="#565656"/>
<path d="M164.57 93.625V105H163.086V93.625H164.57ZM168.227 93.625V94.8594H159.438V93.625H168.227ZM177.141 103.773V105H171.117V103.773H177.141ZM171.422 93.625V105H169.914V93.625H171.422ZM176.344 98.5156V99.7422H171.117V98.5156H176.344ZM177.062 93.625V94.8594H171.117V93.625H177.062ZM185.07 102.125C185.07 101.859 185.029 101.625 184.945 101.422C184.867 101.214 184.727 101.026 184.523 100.859C184.326 100.693 184.049 100.534 183.695 100.383C183.346 100.232 182.904 100.078 182.367 99.9219C181.805 99.7552 181.297 99.5703 180.844 99.3672C180.391 99.1589 180.003 98.9219 179.68 98.6562C179.357 98.3906 179.109 98.0859 178.938 97.7422C178.766 97.3984 178.68 97.0052 178.68 96.5625C178.68 96.1198 178.771 95.7109 178.953 95.3359C179.135 94.9609 179.396 94.6354 179.734 94.3594C180.078 94.0781 180.487 93.8594 180.961 93.7031C181.435 93.5469 181.964 93.4688 182.547 93.4688C183.401 93.4688 184.125 93.6328 184.719 93.9609C185.318 94.2839 185.773 94.7083 186.086 95.2344C186.398 95.7552 186.555 96.3125 186.555 96.9062H185.055C185.055 96.4792 184.964 96.1016 184.781 95.7734C184.599 95.4401 184.323 95.1797 183.953 94.9922C183.583 94.7995 183.115 94.7031 182.547 94.7031C182.01 94.7031 181.568 94.7839 181.219 94.9453C180.87 95.1068 180.609 95.3255 180.438 95.6016C180.271 95.8776 180.188 96.1927 180.188 96.5469C180.188 96.7865 180.237 97.0052 180.336 97.2031C180.44 97.3958 180.599 97.5755 180.812 97.7422C181.031 97.9089 181.307 98.0625 181.641 98.2031C181.979 98.3438 182.383 98.4792 182.852 98.6094C183.497 98.7917 184.055 98.9948 184.523 99.2188C184.992 99.4427 185.378 99.6953 185.68 99.9766C185.987 100.253 186.214 100.568 186.359 100.922C186.51 101.271 186.586 101.667 186.586 102.109C186.586 102.573 186.492 102.992 186.305 103.367C186.117 103.742 185.849 104.062 185.5 104.328C185.151 104.594 184.732 104.799 184.242 104.945C183.758 105.086 183.216 105.156 182.617 105.156C182.091 105.156 181.573 105.083 181.062 104.938C180.557 104.792 180.096 104.573 179.68 104.281C179.268 103.99 178.938 103.63 178.688 103.203C178.443 102.771 178.32 102.271 178.32 101.703H179.82C179.82 102.094 179.896 102.43 180.047 102.711C180.198 102.987 180.404 103.216 180.664 103.398C180.93 103.581 181.229 103.716 181.562 103.805C181.901 103.888 182.253 103.93 182.617 103.93C183.143 103.93 183.589 103.857 183.953 103.711C184.318 103.565 184.594 103.357 184.781 103.086C184.974 102.815 185.07 102.495 185.07 102.125ZM192.711 93.625V105H191.227V93.625H192.711ZM196.367 93.625V94.8594H187.578V93.625H196.367ZM206.805 93.625V105H205.289L199.562 96.2266V105H198.055V93.625H199.562L205.312 102.422V93.625H206.805ZM216.703 103.773V105H210.68V103.773H216.703ZM210.984 93.625V105H209.477V93.625H210.984ZM215.906 98.5156V99.7422H210.68V98.5156H215.906ZM216.625 93.625V94.8594H210.68V93.625H216.625ZM222.93 93.625V105H221.445V93.625H222.93ZM226.586 93.625V94.8594H217.797V93.625H226.586Z" fill="white"/>
<defs>
<linearGradient id="paint0_linear_0_1" x1="171.803" y1="25" x2="430.199" y2="223.173" gradientUnits="userSpaceOnUse">
<stop stop-color="#5CC9AC"/>
<stop offset="1" stop-color="white"/>
</linearGradient>
</defs>
</svg>
