<svg width="553" height="120" viewBox="0 0 553 120" fill="none" xmlns="http://www.w3.org/2000/svg">
<path d="M151.258 42.8984L139.961 74H135.344L148.352 39.875H151.328L151.258 42.8984ZM160.727 74L149.406 42.8984L149.336 39.875H152.312L165.367 74H160.727ZM160.141 61.3672V65.0703H140.969V61.3672H160.141ZM192.836 70.3203V74H169.727V70.3203H192.836ZM192.086 43.1562L170.805 74H168.016V70.625L189.273 39.875H192.086V43.1562ZM190.164 39.875V43.5781H168.32V39.875H190.164ZM220.398 70.3203V74H202.328V70.3203H220.398ZM203.242 39.875V74H198.719V39.875H203.242ZM218.008 54.5469V58.2266H202.328V54.5469H218.008ZM220.164 39.875V43.5781H202.328V39.875H220.164ZM226 39.875H237.297C239.859 39.875 242.023 40.2656 243.789 41.0469C245.57 41.8281 246.922 42.9844 247.844 44.5156C248.781 46.0312 249.25 47.8984 249.25 50.1172C249.25 51.6797 248.93 53.1094 248.289 54.4062C247.664 55.6875 246.758 56.7812 245.57 57.6875C244.398 58.5781 242.992 59.2422 241.352 59.6797L240.086 60.1719H229.469L229.422 56.4922H237.438C239.062 56.4922 240.414 56.2109 241.492 55.6484C242.57 55.0703 243.383 54.2969 243.93 53.3281C244.477 52.3594 244.75 51.2891 244.75 50.1172C244.75 48.8047 244.492 47.6562 243.977 46.6719C243.461 45.6875 242.648 44.9297 241.539 44.3984C240.445 43.8516 239.031 43.5781 237.297 43.5781H230.523V74H226V39.875ZM245.945 74L237.648 58.5312L242.359 58.5078L250.773 73.7188V74H245.945ZM281.852 55.8594V58.0156C281.852 60.5781 281.531 62.875 280.891 64.9062C280.25 66.9375 279.328 68.6641 278.125 70.0859C276.922 71.5078 275.477 72.5938 273.789 73.3438C272.117 74.0938 270.242 74.4688 268.164 74.4688C266.148 74.4688 264.297 74.0938 262.609 73.3438C260.938 72.5938 259.484 71.5078 258.25 70.0859C257.031 68.6641 256.086 66.9375 255.414 64.9062C254.742 62.875 254.406 60.5781 254.406 58.0156V55.8594C254.406 53.2969 254.734 51.0078 255.391 48.9922C256.062 46.9609 257.008 45.2344 258.227 43.8125C259.445 42.375 260.891 41.2812 262.562 40.5312C264.25 39.7812 266.102 39.4062 268.117 39.4062C270.195 39.4062 272.07 39.7812 273.742 40.5312C275.43 41.2812 276.875 42.375 278.078 43.8125C279.297 45.2344 280.227 46.9609 280.867 48.9922C281.523 51.0078 281.852 53.2969 281.852 55.8594ZM277.375 58.0156V55.8125C277.375 53.7812 277.164 51.9844 276.742 50.4219C276.336 48.8594 275.734 47.5469 274.938 46.4844C274.141 45.4219 273.164 44.6172 272.008 44.0703C270.867 43.5234 269.57 43.25 268.117 43.25C266.711 43.25 265.438 43.5234 264.297 44.0703C263.172 44.6172 262.203 45.4219 261.391 46.4844C260.594 47.5469 259.977 48.8594 259.539 50.4219C259.102 51.9844 258.883 53.7812 258.883 55.8125V58.0156C258.883 60.0625 259.102 61.875 259.539 63.4531C259.977 65.0156 260.602 66.3359 261.414 67.4141C262.242 68.4766 263.219 69.2812 264.344 69.8281C265.484 70.375 266.758 70.6484 268.164 70.6484C269.633 70.6484 270.938 70.375 272.078 69.8281C273.219 69.2812 274.18 68.4766 274.961 67.4141C275.758 66.3359 276.359 65.0156 276.766 63.4531C277.172 61.875 277.375 60.0625 277.375 58.0156ZM321.133 63.1484H325.633C325.398 65.3047 324.781 67.2344 323.781 68.9375C322.781 70.6406 321.367 71.9922 319.539 72.9922C317.711 73.9766 315.43 74.4688 312.695 74.4688C310.695 74.4688 308.875 74.0938 307.234 73.3438C305.609 72.5938 304.211 71.5312 303.039 70.1562C301.867 68.7656 300.961 67.1016 300.32 65.1641C299.695 63.2109 299.383 61.0391 299.383 58.6484V55.25C299.383 52.8594 299.695 50.6953 300.32 48.7578C300.961 46.8047 301.875 45.1328 303.062 43.7422C304.266 42.3516 305.711 41.2812 307.398 40.5312C309.086 39.7812 310.984 39.4062 313.094 39.4062C315.672 39.4062 317.852 39.8906 319.633 40.8594C321.414 41.8281 322.797 43.1719 323.781 44.8906C324.781 46.5938 325.398 48.5703 325.633 50.8203H321.133C320.914 49.2266 320.508 47.8594 319.914 46.7188C319.32 45.5625 318.477 44.6719 317.383 44.0469C316.289 43.4219 314.859 43.1094 313.094 43.1094C311.578 43.1094 310.242 43.3984 309.086 43.9766C307.945 44.5547 306.984 45.375 306.203 46.4375C305.438 47.5 304.859 48.7734 304.469 50.2578C304.078 51.7422 303.883 53.3906 303.883 55.2031V58.6484C303.883 60.3203 304.055 61.8906 304.398 63.3594C304.758 64.8281 305.297 66.1172 306.016 67.2266C306.734 68.3359 307.648 69.2109 308.758 69.8516C309.867 70.4766 311.18 70.7891 312.695 70.7891C314.617 70.7891 316.148 70.4844 317.289 69.875C318.43 69.2656 319.289 68.3906 319.867 67.25C320.461 66.1094 320.883 64.7422 321.133 63.1484ZM351.32 39.875H355.82V62.9609C355.82 65.5234 355.25 67.6562 354.109 69.3594C352.969 71.0625 351.453 72.3438 349.562 73.2031C347.688 74.0469 345.648 74.4688 343.445 74.4688C341.133 74.4688 339.039 74.0469 337.164 73.2031C335.305 72.3438 333.828 71.0625 332.734 69.3594C331.656 67.6562 331.117 65.5234 331.117 62.9609V39.875H335.594V62.9609C335.594 64.7422 335.922 66.2109 336.578 67.3672C337.234 68.5234 338.148 69.3828 339.32 69.9453C340.508 70.5078 341.883 70.7891 343.445 70.7891C345.023 70.7891 346.398 70.5078 347.57 69.9453C348.758 69.3828 349.68 68.5234 350.336 67.3672C350.992 66.2109 351.32 64.7422 351.32 62.9609V39.875ZM362.922 39.875H374.219C376.781 39.875 378.945 40.2656 380.711 41.0469C382.492 41.8281 383.844 42.9844 384.766 44.5156C385.703 46.0312 386.172 47.8984 386.172 50.1172C386.172 51.6797 385.852 53.1094 385.211 54.4062C384.586 55.6875 383.68 56.7812 382.492 57.6875C381.32 58.5781 379.914 59.2422 378.273 59.6797L377.008 60.1719H366.391L366.344 56.4922H374.359C375.984 56.4922 377.336 56.2109 378.414 55.6484C379.492 55.0703 380.305 54.2969 380.852 53.3281C381.398 52.3594 381.672 51.2891 381.672 50.1172C381.672 48.8047 381.414 47.6562 380.898 46.6719C380.383 45.6875 379.57 44.9297 378.461 44.3984C377.367 43.8516 375.953 43.5781 374.219 43.5781H367.445V74H362.922V39.875ZM382.867 74L374.57 58.5312L379.281 58.5078L387.695 73.7188V74H382.867ZM405.133 42.8984L393.836 74H389.219L402.227 39.875H405.203L405.133 42.8984ZM414.602 74L403.281 42.8984L403.211 39.875H406.188L419.242 74H414.602ZM414.016 61.3672V65.0703H394.844V61.3672H414.016ZM433.375 39.875V74H428.922V39.875H433.375ZM444.344 39.875V43.5781H417.977V39.875H444.344ZM454.258 39.875V74H449.734V39.875H454.258ZM488.758 55.8594V58.0156C488.758 60.5781 488.438 62.875 487.797 64.9062C487.156 66.9375 486.234 68.6641 485.031 70.0859C483.828 71.5078 482.383 72.5938 480.695 73.3438C479.023 74.0938 477.148 74.4688 475.07 74.4688C473.055 74.4688 471.203 74.0938 469.516 73.3438C467.844 72.5938 466.391 71.5078 465.156 70.0859C463.938 68.6641 462.992 66.9375 462.32 64.9062C461.648 62.875 461.312 60.5781 461.312 58.0156V55.8594C461.312 53.2969 461.641 51.0078 462.297 48.9922C462.969 46.9609 463.914 45.2344 465.133 43.8125C466.352 42.375 467.797 41.2812 469.469 40.5312C471.156 39.7812 473.008 39.4062 475.023 39.4062C477.102 39.4062 478.977 39.7812 480.648 40.5312C482.336 41.2812 483.781 42.375 484.984 43.8125C486.203 45.2344 487.133 46.9609 487.773 48.9922C488.43 51.0078 488.758 53.2969 488.758 55.8594ZM484.281 58.0156V55.8125C484.281 53.7812 484.07 51.9844 483.648 50.4219C483.242 48.8594 482.641 47.5469 481.844 46.4844C481.047 45.4219 480.07 44.6172 478.914 44.0703C477.773 43.5234 476.477 43.25 475.023 43.25C473.617 43.25 472.344 43.5234 471.203 44.0703C470.078 44.6172 469.109 45.4219 468.297 46.4844C467.5 47.5469 466.883 48.8594 466.445 50.4219C466.008 51.9844 465.789 53.7812 465.789 55.8125V58.0156C465.789 60.0625 466.008 61.875 466.445 63.4531C466.883 65.0156 467.508 66.3359 468.32 67.4141C469.148 68.4766 470.125 69.2812 471.25 69.8281C472.391 70.375 473.664 70.6484 475.07 70.6484C476.539 70.6484 477.844 70.375 478.984 69.8281C480.125 69.2812 481.086 68.4766 481.867 67.4141C482.664 66.3359 483.266 65.0156 483.672 63.4531C484.078 61.875 484.281 60.0625 484.281 58.0156ZM521.781 39.875V74H517.234L500.055 47.6797V74H495.531V39.875H500.055L517.305 66.2656V39.875H521.781ZM547.984 65.375C547.984 64.5781 547.859 63.875 547.609 63.2656C547.375 62.6406 546.953 62.0781 546.344 61.5781C545.75 61.0781 544.922 60.6016 543.859 60.1484C542.812 59.6953 541.484 59.2344 539.875 58.7656C538.188 58.2656 536.664 57.7109 535.305 57.1016C533.945 56.4766 532.781 55.7656 531.812 54.9688C530.844 54.1719 530.102 53.2578 529.586 52.2266C529.07 51.1953 528.812 50.0156 528.812 48.6875C528.812 47.3594 529.086 46.1328 529.633 45.0078C530.18 43.8828 530.961 42.9062 531.977 42.0781C533.008 41.2344 534.234 40.5781 535.656 40.1094C537.078 39.6406 538.664 39.4062 540.414 39.4062C542.977 39.4062 545.148 39.8984 546.93 40.8828C548.727 41.8516 550.094 43.125 551.031 44.7031C551.969 46.2656 552.438 47.9375 552.438 49.7188H547.938C547.938 48.4375 547.664 47.3047 547.117 46.3203C546.57 45.3203 545.742 44.5391 544.633 43.9766C543.523 43.3984 542.117 43.1094 540.414 43.1094C538.805 43.1094 537.477 43.3516 536.43 43.8359C535.383 44.3203 534.602 44.9766 534.086 45.8047C533.586 46.6328 533.336 47.5781 533.336 48.6406C533.336 49.3594 533.484 50.0156 533.781 50.6094C534.094 51.1875 534.57 51.7266 535.211 52.2266C535.867 52.7266 536.695 53.1875 537.695 53.6094C538.711 54.0312 539.922 54.4375 541.328 54.8281C543.266 55.375 544.938 55.9844 546.344 56.6562C547.75 57.3281 548.906 58.0859 549.812 58.9297C550.734 59.7578 551.414 60.7031 551.852 61.7656C552.305 62.8125 552.531 64 552.531 65.3281C552.531 66.7188 552.25 67.9766 551.688 69.1016C551.125 70.2266 550.32 71.1875 549.273 71.9844C548.227 72.7812 546.969 73.3984 545.5 73.8359C544.047 74.2578 542.422 74.4688 540.625 74.4688C539.047 74.4688 537.492 74.25 535.961 73.8125C534.445 73.375 533.062 72.7188 531.812 71.8438C530.578 70.9688 529.586 69.8906 528.836 68.6094C528.102 67.3125 527.734 65.8125 527.734 64.1094H532.234C532.234 65.2812 532.461 66.2891 532.914 67.1328C533.367 67.9609 533.984 68.6484 534.766 69.1953C535.562 69.7422 536.461 70.1484 537.461 70.4141C538.477 70.6641 539.531 70.7891 540.625 70.7891C542.203 70.7891 543.539 70.5703 544.633 70.1328C545.727 69.6953 546.555 69.0703 547.117 68.2578C547.695 67.4453 547.984 66.4844 547.984 65.375Z" fill="url(#paint0_linear_0_1)"/>
<circle cx="60" cy="60" r="60" fill="#5CC9AC"/>
<circle cx="60" cy="60" r="54" fill="#172029"/>
<circle cx="60" cy="60" r="60" fill="#5CC9AC"/>
<circle cx="60" cy="60" r="54" fill="#172029"/>
<circle cx="60" cy="60" r="45" fill="#5CC9AC"/>
<circle cx="60" cy="60" r="39" fill="#172029"/>
<path d="M53.995 32.3396L61.0069 32.3397L39.27 79.7523L30.8557 79.7523L53.995 32.3396Z" fill="white"/>
<path d="M55.6713 32.8889H66.0663L65.1979 38H60.8688H56.4436L55.6713 32.8889Z" fill="white"/>
<path d="M60.3058 32.3385L67.0681 32.3384L88.3534 79.7523L79.9392 79.7523L60.3058 32.3385Z" fill="white"/>
<path d="M35.055 50.2667H48.915V56.9111H35.055V50.2667Z" fill="white"/>
<path d="M71.1901 50.2667H83.5651V56.9111H71.1901V50.2667Z" fill="white"/>
<rect x="53.4" y="60" width="14.4" height="3" fill="white"/>
<rect x="53.4" y="65.4" width="14.4" height="3" fill="white"/>
<rect x="53.4" y="70.8" width="14.4" height="3" fill="white"/>
<rect x="140" y="87" width="107" height="25" rx="12.5" fill="#565656"/>
<path d="M164.57 93.625V105H163.086V93.625H164.57ZM168.227 93.625V94.8594H159.438V93.625H168.227ZM177.141 103.773V105H171.117V103.773H177.141ZM171.422 93.625V105H169.914V93.625H171.422ZM176.344 98.5156V99.7422H171.117V98.5156H176.344ZM177.062 93.625V94.8594H171.117V93.625H177.062ZM185.07 102.125C185.07 101.859 185.029 101.625 184.945 101.422C184.867 101.214 184.727 101.026 184.523 100.859C184.326 100.693 184.049 100.534 183.695 100.383C183.346 100.232 182.904 100.078 182.367 99.9219C181.805 99.7552 181.297 99.5703 180.844 99.3672C180.391 99.1589 180.003 98.9219 179.68 98.6562C179.357 98.3906 179.109 98.0859 178.938 97.7422C178.766 97.3984 178.68 97.0052 178.68 96.5625C178.68 96.1198 178.771 95.7109 178.953 95.3359C179.135 94.9609 179.396 94.6354 179.734 94.3594C180.078 94.0781 180.487 93.8594 180.961 93.7031C181.435 93.5469 181.964 93.4688 182.547 93.4688C183.401 93.4688 184.125 93.6328 184.719 93.9609C185.318 94.2839 185.773 94.7083 186.086 95.2344C186.398 95.7552 186.555 96.3125 186.555 96.9062H185.055C185.055 96.4792 184.964 96.1016 184.781 95.7734C184.599 95.4401 184.323 95.1797 183.953 94.9922C183.583 94.7995 183.115 94.7031 182.547 94.7031C182.01 94.7031 181.568 94.7839 181.219 94.9453C180.87 95.1068 180.609 95.3255 180.438 95.6016C180.271 95.8776 180.188 96.1927 180.188 96.5469C180.188 96.7865 180.237 97.0052 180.336 97.2031C180.44 97.3958 180.599 97.5755 180.812 97.7422C181.031 97.9089 181.307 98.0625 181.641 98.2031C181.979 98.3438 182.383 98.4792 182.852 98.6094C183.497 98.7917 184.055 98.9948 184.523 99.2188C184.992 99.4427 185.378 99.6953 185.68 99.9766C185.987 100.253 186.214 100.568 186.359 100.922C186.51 101.271 186.586 101.667 186.586 102.109C186.586 102.573 186.492 102.992 186.305 103.367C186.117 103.742 185.849 104.062 185.5 104.328C185.151 104.594 184.732 104.799 184.242 104.945C183.758 105.086 183.216 105.156 182.617 105.156C182.091 105.156 181.573 105.083 181.062 104.938C180.557 104.792 180.096 104.573 179.68 104.281C179.268 103.99 178.938 103.63 178.688 103.203C178.443 102.771 178.32 102.271 178.32 101.703H179.82C179.82 102.094 179.896 102.43 180.047 102.711C180.198 102.987 180.404 103.216 180.664 103.398C180.93 103.581 181.229 103.716 181.562 103.805C181.901 103.888 182.253 103.93 182.617 103.93C183.143 103.93 183.589 103.857 183.953 103.711C184.318 103.565 184.594 103.357 184.781 103.086C184.974 102.815 185.07 102.495 185.07 102.125ZM192.711 93.625V105H191.227V93.625H192.711ZM196.367 93.625V94.8594H187.578V93.625H196.367ZM206.805 93.625V105H205.289L199.562 96.2266V105H198.055V93.625H199.562L205.312 102.422V93.625H206.805ZM216.703 103.773V105H210.68V103.773H216.703ZM210.984 93.625V105H209.477V93.625H210.984ZM215.906 98.5156V99.7422H210.68V98.5156H215.906ZM216.625 93.625V94.8594H210.68V93.625H216.625ZM222.93 93.625V105H221.445V93.625H222.93ZM226.586 93.625V94.8594H217.797V93.625H226.586Z" fill="white"/>
<defs>
<linearGradient id="paint0_linear_0_1" x1="179.948" y1="25" x2="445.6" y2="260.77" gradientUnits="userSpaceOnUse">
<stop stop-color="#5CC9AC"/>
<stop offset="1" stop-color="white"/>
</linearGradient>
</defs>
</svg>
