<svg width="1434" height="146" viewBox="0 0 1434 146" fill="none" xmlns="http://www.w3.org/2000/svg">
<rect x="895.25" y="126" width="356.5" height="41.2" transform="rotate(-180 895.25 126)" stroke="#5CC9AC" stroke-width="2"/>
<rect x="1433" y="144" width="356.5" height="41.2" transform="rotate(-180 1433 144)" stroke="#5CC9AC" stroke-width="2"/>
<rect x="357.5" y="144" width="356.5" height="41.2" transform="rotate(-180 357.5 144)" stroke="#5CC9AC" stroke-width="2"/>
<path d="M1080.35 144.306L888.724 125.835" stroke="#5CC9AC" stroke-width="2"/>
<path d="M353.526 144.306L545.148 125.835" stroke="#5CC9AC" stroke-width="2"/>
<path d="M1084.8 103.342L891.58 84.4922" stroke="#5CC9AC" stroke-width="2"/>
<path d="M349.073 103.342L542.293 84.4922" stroke="#5CC9AC" stroke-width="2"/>
<rect x="895.25" y="43.2" width="356.5" height="41.2" transform="rotate(-180 895.25 43.2)" stroke="#5CC9AC" stroke-width="2"/>
<rect x="1433" y="61.2" width="356.5" height="41.2" transform="rotate(-180 1433 61.2)" stroke="#5CC9AC" stroke-width="2"/>
<rect x="357.5" y="61.2" width="356.5" height="41.2" transform="rotate(-180 357.5 61.2)" stroke="#5CC9AC" stroke-width="2"/>
<path d="M1080.35 61.5058L888.724 43.0353" stroke="#5CC9AC" stroke-width="2"/>
<path d="M353.526 61.5058L545.148 43.0353" stroke="#5CC9AC" stroke-width="2"/>
<path d="M1084.8 20.5415L891.58 1.69213" stroke="#5CC9AC" stroke-width="2"/>
<path d="M349.073 20.5415L542.293 1.69213" stroke="#5CC9AC" stroke-width="2"/>
</svg>
